<?xml version="1.0" standalone="no"?>
<!DOCTYPE svg PUBLIC "-//W3C//DTD SVG 20010904//EN"
 "http://www.w3.org/TR/2001/REC-SVG-20010904/DTD/svg10.dtd">
<svg version="1.0" xmlns="http://www.w3.org/2000/svg"
 width="554.000000pt" height="99.000000pt" viewBox="0 0 554.000000 99.000000"
 preserveAspectRatio="xMidYMid meet">

<g transform="translate(0.000000,99.000000) scale(0.100000,-0.100000)"
fill="#000000" stroke="none">
<path d="M3145 950 c-71 -28 -119 -71 -152 -138 l-28 -57 0 -270 c0 -196 4
-280 13 -307 21 -60 68 -115 124 -148 48 -27 61 -30 143 -30 106 0 152 17 213
78 59 59 77 121 77 267 l0 120 -125 0 -125 0 -3 -88 -3 -87 37 0 c36 0 36 -1
30 -32 -16 -79 -109 -109 -164 -54 l-27 26 0 250 0 250 27 26 c37 37 99 37
136 0 24 -24 27 -35 31 -111 l3 -85 95 0 96 0 -6 93 c-7 119 -28 176 -83 232
-80 80 -203 105 -309 65z"/>
<path d="M4524 946 c-106 -49 -157 -152 -135 -272 19 -102 56 -148 207 -263
48 -36 96 -78 107 -92 48 -67 3 -158 -72 -145 -42 7 -68 37 -77 89 l-7 37 -95
0 -95 0 7 -52 c10 -85 62 -177 121 -216 l50 -34 112 4 c105 3 114 5 155 33 28
21 53 50 73 89 26 51 30 69 29 135 -1 125 -38 181 -193 295 -109 81 -140 114
-148 158 -7 44 22 78 67 78 40 0 65 -28 74 -78 l6 -42 90 0 90 0 0 45 c0 103
-70 208 -159 240 -65 23 -146 19 -207 -9z"/>
<path d="M1770 480 l0 -470 230 0 230 0 0 90 0 90 -135 0 -135 0 0 100 0 100
120 0 120 0 0 90 0 90 -120 0 -120 0 0 100 0 100 135 0 135 0 0 90 0 90 -230
0 -230 0 0 -470z"/>
<path d="M2300 480 l0 -471 91 3 92 3 -2 254 c-1 140 -4 258 -7 263 -3 4 -2 8
3 8 4 0 23 -37 41 -83 19 -45 68 -164 109 -264 l75 -183 94 0 94 0 0 470 0
470 -96 0 -96 0 6 -272 7 -273 -84 200 c-46 110 -97 233 -113 272 l-29 73 -92
0 -93 0 0 -470z"/>
<path d="M3610 480 l0 -470 238 2 237 3 0 85 0 85 -142 3 -143 3 0 379 0 380
-95 0 -95 0 0 -470z"/>
<path d="M4120 480 l0 -470 95 0 95 0 0 470 0 470 -95 0 -95 0 0 -470z"/>
<path d="M4970 480 l0 -471 93 3 92 3 3 187 2 188 85 0 85 0 0 -190 0 -191 93
3 92 3 0 465 0 465 -92 3 -93 3 0 -191 0 -190 -85 0 -85 0 -2 188 -3 187 -92
3 -93 3 0 -471z"/>
<path d="M60 860 l0 -80 113 0 c63 0 116 -2 119 -6 3 -3 -55 -145 -128 -317
-125 -290 -134 -316 -134 -374 l0 -63 224 0 224 0 4 64 c5 102 13 96 -118 96
-74 0 -114 4 -114 11 0 6 59 147 130 314 123 286 130 307 130 369 l0 66 -225
0 -225 0 0 -80z"/>
<path d="M570 480 l0 -460 230 0 230 0 0 80 0 79 -137 3 -138 3 -3 103 -3 102
121 0 120 0 0 85 0 84 -117 3 -118 3 0 105 0 105 138 3 137 3 0 79 0 80 -230
0 -230 0 0 -460z"/>
<path d="M1100 480 l0 -460 90 0 89 0 -5 272 c-3 194 -1 267 6 253 6 -11 57
-132 114 -270 l103 -250 91 -3 92 -3 0 461 0 460 -90 0 -91 0 7 -272 c4 -150
4 -270 1 -267 -4 3 -55 124 -115 270 l-109 264 -91 3 -92 3 0 -461z"/>
</g>
</svg>
